<?xml version="1.0" standalone="no"?>
<!DOCTYPE svg PUBLIC "-//W3C//DTD SVG 20010904//EN"
 "http://www.w3.org/TR/2001/REC-SVG-20010904/DTD/svg10.dtd">
<svg version="1.0" xmlns="http://www.w3.org/2000/svg"
 width="700.000000pt" height="700.000000pt" viewBox="0 0 700.000000 700.000000"
 preserveAspectRatio="xMidYMid meet">
<metadata>
Created by potrace 1.11, written by Peter Selinger 2001-2013
</metadata>
<g transform="translate(0.000000,700.000000) scale(0.100000,-0.100000)"
fill="#000000" stroke="none">
<path d="M1173 4305 c0 -8 4 -12 9 -9 4 3 8 -2 8 -10 0 -10 6 -13 18 -10 14 5
14 4 2 -4 -10 -8 -18 -8 -27 -1 -9 8 -10 4 -5 -18 4 -15 6 -73 4 -128 -1 -55
-3 -112 -4 -127 0 -15 -4 -26 -8 -23 -4 3 -6 -11 -4 -30 1 -20 -1 -33 -6 -30
-9 6 -6 -28 5 -45 3 -6 0 -10 -8 -10 -8 0 -17 -7 -21 -15 -4 -11 1 -15 17 -15
17 0 19 2 8 9 -11 7 -10 10 4 12 11 3 19 15 21 32 2 25 1 27 -13 15 -14 -11
-14 -9 1 14 10 15 18 31 19 35 1 4 5 7 9 6 5 -2 8 2 8 8 0 6 -8 8 -17 5 -16
-5 -15 -4 1 9 10 8 23 12 27 9 5 -3 9 -1 9 4 0 16 -12 21 -30 12 -12 -6 -17
-5 -17 5 0 7 6 11 12 9 6 -3 17 7 23 21 14 30 15 35 5 34 -31 -5 -37 10 -18
40 5 10 4 16 -4 19 -9 3 -9 8 1 20 10 12 10 14 1 8 -7 -4 -13 -2 -13 3 0 6 6
11 13 11 9 0 9 2 1 8 -9 5 -8 10 2 19 8 8 15 9 19 3 3 -6 12 -10 18 -10 7 0 1
9 -13 20 -14 11 -19 20 -11 20 10 0 11 3 2 14 -9 11 -9 16 0 22 8 5 9 3 4 -6
-6 -9 -4 -11 5 -5 8 5 11 4 6 -3 -3 -6 -2 -13 4 -17 6 -4 8 -10 5 -15 -3 -4 3
-14 12 -21 15 -12 16 -12 10 3 -3 10 -3 20 2 22 4 3 8 -1 9 -9 1 -8 3 -22 4
-30 1 -8 5 -12 10 -9 5 3 5 10 2 16 -4 6 2 6 15 -1 11 -7 21 -14 21 -17 0 -3
-6 -2 -12 2 -9 5 -9 2 1 -9 16 -20 25 -22 16 -4 -4 6 3 1 14 -12 12 -12 19
-27 16 -31 -3 -5 0 -12 6 -16 8 -5 9 -3 4 6 -6 9 -4 11 5 5 9 -6 11 -4 5 5 -5
8 -4 11 3 6 6 -4 9 -13 5 -22 -3 -8 -2 -14 3 -13 21 4 25 -2 13 -18 -12 -16
-11 -16 8 0 21 18 21 18 18 0 -1 -10 -8 -17 -15 -15 -6 1 -10 -3 -7 -10 2 -7
10 -12 16 -10 9 2 9 -3 1 -18 -6 -11 -7 -20 -3 -20 4 -1 -4 -8 -19 -16 -36
-19 -35 -30 1 -48 l29 -15 -2 34 c-1 19 3 37 9 39 5 3 4 5 -4 5 -10 1 -11 5
-3 14 15 17 10 83 -6 80 -6 -2 -12 1 -12 6 0 12 -69 89 -70 77 0 -5 -9 3 -20
17 -12 15 -27 24 -35 20 -11 -4 -13 -1 -9 12 6 15 3 16 -17 10 -22 -7 -23 -7
-9 10 8 11 10 16 3 12 -6 -4 -13 -4 -15 0 -1 5 -19 20 -39 35 -24 18 -36 22
-36 13z m32 -65 c3 -5 1 -10 -4 -10 -6 0 -11 5 -11 10 0 6 2 10 4 10 3 0 8 -4
11 -10z m5 -24 c0 -3 -4 -8 -10 -11 -5 -3 -10 -1 -10 4 0 6 5 11 10 11 6 0 10
-2 10 -4z m169 -80 c-3 -3 -11 5 -18 17 -13 21 -12 21 5 5 10 -10 16 -20 13
-22z m-169 -95 c0 -6 -4 -12 -8 -15 -5 -3 -9 1 -9 9 0 8 4 15 9 15 4 0 8 -4 8
-9z m214 -91 c-6 -6 -15 -6 -24 0 -13 9 -13 11 0 20 18 11 39 -5 24 -20z"/>
<path d="M1476 4108 c4 -196 -25 -348 -98 -517 -70 -160 -161 -287 -310 -434
-169 -166 -419 -330 -643 -422 -38 -16 -74 -33 -80 -37 -10 -9 1458 -9 1482
-1 31 12 135 240 167 364 54 216 35 450 -53 643 -82 182 -272 400 -442 510
l-26 16 3 -122z"/>
<path d="M1228 4174 c9 -7 20 -10 24 -8 4 3 15 -7 24 -21 10 -15 23 -24 31
-21 13 5 44 -16 43 -29 -1 -25 1 -29 10 -15 5 8 10 11 10 7 0 -5 -9 -22 -20
-37 -11 -16 -16 -31 -12 -34 5 -3 14 6 21 20 12 26 37 23 27 -3 -4 -9 -1 -22
6 -30 10 -13 13 -12 19 4 4 10 0 25 -9 35 -13 15 -13 20 -1 35 8 9 9 14 3 10
-12 -7 -48 16 -50 32 -1 6 -2 16 -3 22 0 5 -5 8 -10 5 -5 -3 -14 1 -21 9 -8
10 -21 13 -33 9 -14 -5 -19 -3 -15 7 4 10 -4 14 -28 15 -29 1 -31 -1 -16 -12z
m83 -37 c-13 -13 -26 -3 -16 12 3 6 11 8 17 5 6 -4 6 -10 -1 -17z m99 -111 c0
-3 -4 -8 -10 -11 -5 -3 -10 -1 -10 4 0 6 5 11 10 11 6 0 10 -2 10 -4z"/>
<path d="M1215 4143 c2 -16 -1 -33 -5 -38 -5 -6 -5 -17 0 -25 7 -10 10 -11 10
-2 0 6 4 12 9 12 10 0 7 -53 -3 -69 -9 -13 18 -31 33 -22 10 7 9 9 -3 14 -17
7 -14 44 5 61 9 8 10 7 4 -3 -5 -9 -4 -12 3 -7 18 11 14 29 -4 22 -10 -4 -13
-2 -8 6 5 7 2 8 -7 3 -8 -5 -11 -4 -6 0 4 5 0 17 -10 27 -9 10 -14 18 -12 19
2 0 12 2 22 4 14 3 16 0 7 -10 -13 -16 3 -30 22 -19 7 5 8 3 3 -6 -5 -8 -4
-11 2 -7 5 3 10 0 11 -8 1 -8 3 -22 4 -30 1 -9 7 -14 14 -11 8 3 16 1 19 -5 4
-5 3 -8 -2 -7 -8 3 -14 -7 -12 -17 1 -3 2 -9 3 -15 0 -5 4 -10 9 -10 4 0 10 0
13 0 4 0 1 6 -5 14 -8 9 -8 16 -2 20 6 4 7 14 4 23 -5 11 -3 14 6 9 8 -6 7 2
-3 23 -10 19 -21 28 -30 25 -9 -3 -22 5 -31 20 -10 14 -21 24 -25 21 -5 -3
-11 -1 -15 5 -12 19 -23 10 -20 -17z m102 -40 c-4 -3 -2 -12 4 -20 7 -8 8 -13
1 -13 -12 0 -23 26 -15 34 4 3 9 6 11 6 3 0 2 -3 -1 -7z"/>
<path d="M1270 4057 c-23 -19 -25 -40 -2 -26 10 7 19 18 19 25 0 8 -1 14 -1
14 -1 0 -8 -6 -16 -13z"/>
<path d="M1360 4021 c-18 -44 -54 -48 -55 -6 0 5 -8 11 -17 13 -10 2 -18 -2
-18 -8 0 -6 5 -8 12 -4 7 4 8 3 4 -5 -9 -14 -62 -42 -68 -35 -3 2 -4 -7 -2
-21 2 -20 -1 -24 -10 -16 -10 9 -13 2 -11 -32 1 -48 -22 -95 -46 -92 -15 3
-19 -7 -20 -48 0 -9 -4 -15 -10 -12 -8 5 -14 -15 -10 -37 0 -5 -4 -8 -10 -8
-5 0 -8 -4 -5 -9 4 -5 1 -11 -6 -13 -7 -3 -5 -7 6 -11 11 -5 15 -3 10 5 -4 6
-3 8 3 5 6 -4 9 4 7 18 -2 22 6 30 28 26 4 0 6 8 5 19 -1 11 -5 20 -9 20 -5 0
-3 9 4 20 9 14 14 16 20 7 6 -9 8 -9 8 1 0 6 3 11 8 10 13 -5 54 30 44 36 -6
3 -12 0 -15 -6 -2 -7 -8 -9 -13 -5 -10 9 16 28 28 21 12 -8 10 4 -8 38 -9 16
-12 28 -7 25 5 -3 17 3 26 14 9 10 12 19 7 19 -15 0 -12 17 4 23 9 4 12 -2 10
-19 -1 -15 2 -24 9 -21 6 2 11 15 12 29 0 15 4 30 9 35 5 5 6 2 1 -6 -5 -9 -4
-12 3 -7 7 4 17 4 23 0 8 -4 7 -9 -2 -15 -11 -7 -10 -11 6 -23 26 -20 41 -20
25 -1 -10 12 -10 18 0 30 17 20 33 9 20 -15 -8 -15 -6 -20 10 -25 16 -5 19
-12 14 -28 -6 -21 -5 -21 8 -3 12 15 17 16 23 6 5 -9 4 -11 -3 -6 -7 4 -12 3
-12 -3 0 -5 5 -13 10 -16 6 -4 8 -11 4 -16 -3 -5 -10 -6 -16 -3 -8 5 -9 1 -5
-10 4 -9 3 -15 -2 -12 -5 3 -11 -1 -15 -9 -3 -8 3 -19 12 -25 16 -9 16 -11 -2
-25 -14 -11 -16 -15 -5 -15 10 -1 9 -4 -4 -11 -15 -9 -16 -13 -5 -27 11 -13
11 -14 -1 -7 -10 5 -12 4 -7 -3 12 -20 28 -13 21 9 -5 15 -4 19 4 15 6 -4 11
-4 10 1 -1 4 0 10 1 13 2 7 9 39 14 70 3 14 7 36 10 50 5 20 -1 31 -26 51 -28
23 -30 29 -19 43 10 12 11 19 2 30 -6 7 -9 21 -5 30 11 29 -3 17 -16 -13z"/>
<path d="M1285 3970 c-3 -5 -4 -14 -1 -19 7 -11 -22 -36 -31 -28 -14 15 -32
-15 -23 -38 5 -12 7 -31 5 -41 -2 -11 -4 -23 -4 -28 -1 -5 -4 -6 -7 -3 -4 3
-18 -2 -32 -13 -13 -11 -28 -17 -33 -14 -6 3 -7 -7 -5 -23 3 -15 1 -35 -4 -43
-9 -13 -10 -13 -10 0 0 13 -1 13 -10 0 -5 -8 -7 -23 -4 -32 3 -11 0 -18 -8
-19 -35 -3 -38 -5 -38 -31 0 -7 6 -6 18 4 20 17 50 35 40 23 -4 -4 -2 -15 5
-23 10 -13 9 -14 -2 -8 -9 6 -12 5 -9 -4 2 -7 12 -14 22 -16 13 -2 16 2 11 14
-4 9 -7 22 -8 27 -1 6 -6 13 -10 16 -12 8 3 40 16 32 6 -3 7 -1 3 5 -4 6 -2
21 5 33 9 17 8 20 -3 13 -11 -6 -11 -5 1 9 15 19 26 23 15 5 -4 -7 -3 -8 5 -4
6 4 9 10 7 14 -2 4 2 13 10 20 10 9 14 9 14 1 0 -8 4 -8 15 1 8 7 12 17 8 23
-4 6 -1 7 7 2 9 -5 11 -4 6 3 -5 8 -2 10 8 6 18 -7 22 11 4 22 -7 5 -8 2 -3
-7 6 -10 5 -11 -4 -3 -21 19 -21 53 -1 64 16 8 18 8 14 -5 -4 -10 0 -15 11
-15 9 0 14 4 10 9 -3 5 -1 12 4 15 5 4 12 2 16 -4 4 -6 10 -8 15 -5 5 3 7 -4
5 -15 -3 -14 0 -20 8 -17 7 3 11 10 9 16 -1 7 2 10 8 6 8 -5 7 -11 -1 -21 -9
-11 -8 -14 2 -14 11 0 11 -2 -1 -10 -8 -5 -11 -12 -7 -17 11 -10 27 17 20 33
-3 9 2 12 17 9 13 -2 19 -1 16 3 -4 4 -13 7 -19 7 -7 0 -12 9 -12 19 0 11 -7
21 -15 23 -13 4 -13 3 0 -6 13 -9 13 -11 -1 -11 -9 0 -22 6 -29 14 -6 8 -18
12 -25 10 -9 -4 -13 2 -11 20 3 28 1 32 -9 16z"/>
<path d="M1345 3969 c-4 -6 -5 -12 -2 -15 2 -3 7 2 10 11 7 17 1 20 -8 4z"/>
<path d="M6076 3962 c-14 -3 -16 -48 -16 -458 l0 -454 108 0 109 0 0 454 0
455 -93 3 c-50 2 -99 2 -108 0z"/>
<path d="M2630 3910 c-4 -3 -8 -39 -9 -81 l-1 -76 77 -1 c43 0 97 -1 121 -1
l42 -1 0 -350 0 -351 107 3 106 3 0 343 c0 287 2 345 14 349 8 3 60 6 116 7
l102 1 3 80 3 80 -337 0 c-185 0 -339 -2 -344 -5z"/>
<path d="M1303 3899 c2 -8 7 -21 12 -29 6 -9 -3 -7 -26 7 -38 22 -53 6 -16
-16 15 -10 18 -10 11 1 -4 7 -3 10 1 5 10 -9 15 -48 5 -42 -4 2 -16 -4 -28
-15 -11 -11 -27 -21 -34 -22 -14 -3 -35 -28 -36 -42 0 -5 -6 -12 -13 -17 -27
-16 0 -20 28 -4 15 9 20 14 11 11 -10 -3 -20 0 -24 6 -5 7 -2 8 6 3 8 -5 11
-4 7 2 -4 6 1 10 11 9 9 0 16 4 15 11 -2 7 6 10 18 8 15 -3 19 0 15 10 -3 8 0
17 6 21 7 5 8 2 3 -5 -4 -7 4 -5 19 4 14 10 26 13 26 9 0 -5 4 -3 9 5 6 9 11
10 15 2 4 -6 3 -11 -3 -11 -5 0 -8 -8 -6 -17 1 -10 -3 -25 -9 -33 -10 -13 -9
-13 7 -1 9 8 20 12 23 9 3 -3 -9 -14 -27 -25 -20 -14 -27 -23 -19 -28 6 -4 18
1 26 11 12 17 13 17 8 2 -4 -11 -1 -18 6 -18 6 0 8 -4 5 -10 -3 -5 2 -10 11
-10 15 0 15 2 2 18 -13 15 -16 32 -8 47 1 3 3 10 4 15 0 6 7 15 15 19 11 7 8
13 -13 26 -16 11 -25 24 -22 32 3 8 1 11 -4 8 -6 -3 -11 -1 -11 4 -1 6 -2 15
-3 21 0 5 -6 14 -13 21 -9 9 -11 8 -10 -2z m22 -59 c3 -5 1 -10 -4 -10 -6 0
-11 5 -11 10 0 6 2 10 4 10 3 0 8 -4 11 -10z m45 -39 c0 -6 -4 -12 -8 -15 -5
-3 -9 1 -9 9 0 8 4 15 9 15 4 0 8 -4 8 -9z"/>
<path d="M1289 3787 c-13 -12 -27 -21 -30 -20 -4 1 -12 -4 -18 -11 -9 -10 -8
-15 4 -20 9 -3 18 1 21 9 4 8 10 15 16 15 5 0 6 -6 1 -12 -10 -17 -12 -58 -2
-58 4 0 9 5 11 12 3 9 6 9 12 0 4 -7 2 -12 -4 -12 -6 0 -8 -5 -5 -10 5 -8 12
-7 23 2 10 7 14 8 10 4 -4 -5 -4 -14 2 -20 5 -7 5 -18 1 -25 -6 -9 -11 -10
-15 -2 -4 6 -2 11 5 11 16 0 3 13 -17 16 -20 3 -14 -27 11 -49 11 -10 15 -16
8 -12 -8 3 -11 -2 -8 -15 2 -11 0 -18 -6 -15 -5 4 -7 10 -5 13 2 4 -4 19 -15
32 -11 14 -18 18 -17 10 2 -8 7 -18 13 -22 5 -4 6 -10 2 -15 -5 -4 -12 -1 -17
7 -6 8 -10 13 -11 10 0 -3 -2 -13 -4 -23 -2 -13 1 -16 13 -13 9 3 24 1 32 -4
11 -7 11 -10 2 -10 -7 0 -11 -4 -7 -9 3 -5 1 -12 -5 -16 -6 -4 -7 -12 -3 -18
4 -8 1 -7 -9 1 -11 9 -18 10 -23 2 -3 -5 -1 -10 5 -10 6 0 2 -13 -9 -29 -11
-15 -17 -31 -14 -35 4 -4 0 -4 -8 -1 -24 9 -45 -21 -29 -40 9 -11 9 -15 1 -15
-7 0 -9 -5 -5 -12 6 -10 4 -10 -8 0 -13 10 -17 10 -23 -5 -5 -10 -7 -22 -6
-26 0 -4 -6 -10 -14 -13 -8 -3 -12 -10 -9 -15 3 -5 -1 -12 -10 -15 -8 -3 -12
-13 -9 -22 4 -13 3 -14 -5 -4 -7 11 -10 11 -16 -3 -3 -9 -11 -13 -17 -9 -8 4
-9 3 -5 -4 3 -6 -3 -16 -14 -22 -11 -6 -20 -7 -20 -3 0 4 -5 2 -11 -4 -6 -6
-19 -9 -28 -6 -13 4 -13 2 2 -7 9 -6 21 -9 26 -5 5 3 13 1 16 -5 4 -6 1 -9 -7
-8 -7 2 -12 -3 -10 -9 1 -7 -2 -13 -8 -13 -5 0 -10 7 -10 16 0 8 -5 12 -10 9
-8 -5 -7 -11 1 -21 11 -13 2 -19 -23 -15 -5 0 -8 -3 -8 -7 0 -5 -7 -17 -15
-28 -11 -14 -14 -15 -9 -2 4 12 1 16 -13 13 -10 -2 -20 -4 -23 -4 -3 -1 2 -6
10 -11 13 -8 13 -11 1 -22 -10 -9 -12 -10 -7 -1 5 9 2 11 -8 7 -9 -3 -15 -9
-14 -12 2 -19 -3 -29 -17 -30 -8 -1 -22 -3 -30 -4 -17 -2 -28 -25 -19 -41 3
-7 -2 -3 -12 8 -14 17 -16 18 -10 2 3 -10 2 -16 -3 -12 -5 3 -8 -2 -7 -10 3
-22 16 -31 16 -11 0 9 4 15 9 12 5 -3 20 3 32 14 13 11 20 20 14 20 -5 1 6 7
25 14 19 7 35 18 35 24 0 7 3 12 8 12 12 0 44 35 39 43 -2 5 2 7 10 5 16 -3
110 81 103 92 -3 4 4 10 15 13 11 3 24 17 30 31 5 14 14 26 19 26 5 0 13 9 16
20 4 12 11 17 18 14 7 -4 9 -4 5 0 -3 4 3 17 13 27 12 12 18 27 14 39 -3 10 0
22 6 26 7 4 9 3 5 -4 -3 -6 -1 -14 5 -18 8 -4 9 -3 5 4 -4 7 -3 12 1 12 12 0
44 56 36 64 -3 3 -1 6 5 6 11 0 47 67 44 83 -1 4 2 7 7 7 5 0 12 7 15 16 3 8
2 12 -4 9 -13 -8 -13 5 0 25 8 12 10 12 10 1 0 -8 3 -12 6 -9 3 4 0 17 -7 30
-11 21 -11 22 4 9 10 -8 17 -9 17 -3 0 6 -9 14 -20 17 -11 4 -18 11 -15 16 3
5 0 6 -8 3 -15 -5 -30 10 -33 34 -2 8 3 11 12 8 7 -3 13 -2 13 2 -1 4 0 9 1
12 7 18 7 41 1 45 -5 2 -19 -6 -32 -18z m26 -4 c-2 -10 -4 -19 -4 -21 -1 -2
-6 0 -11 3 -8 5 -7 11 1 21 15 18 18 18 14 -3z m-245 -558 c-7 -9 -15 -13 -19
-10 -3 3 1 10 9 15 21 14 24 12 10 -5z m-220 -185 c0 -5 -5 -10 -11 -10 -5 0
-7 5 -4 10 3 6 8 10 11 10 2 0 4 -4 4 -10z"/>
<path d="M3740 3740 c-49 -14 -88 -40 -122 -80 l-34 -41 1 58 0 58 -107 3
-108 2 0 -345 0 -346 108 3 107 3 1 180 c1 219 8 249 68 276 22 10 61 19 86
19 l46 0 -1 100 c0 54 -5 103 -10 108 -6 5 -21 6 -35 2z"/>
<path d="M4022 3734 c-169 -44 -269 -224 -233 -418 15 -80 46 -139 103 -192
57 -53 103 -74 176 -81 72 -7 134 12 187 59 l45 40 0 -46 0 -47 107 3 108 3 0
325 c0 179 -1 333 -3 342 -4 16 -17 18 -108 17 l-104 -2 0 -42 0 -43 -32 30
c-61 56 -153 76 -246 52z m199 -196 c103 -57 102 -240 0 -293 -86 -44 -187 -4
-211 84 -44 159 81 282 211 209z"/>
<path d="M5597 3744 c-1 -1 -20 -5 -42 -8 -97 -16 -188 -87 -233 -185 -24 -49
-27 -68 -26 -156 0 -108 16 -162 70 -232 114 -150 384 -163 523 -24 39 39 87
118 78 127 -3 3 -55 5 -117 5 -103 1 -113 -1 -136 -22 -29 -27 -105 -33 -147
-10 -23 12 -50 53 -52 75 0 6 95 10 235 10 l235 1 3 63 c6 133 -57 252 -164
309 -33 17 -75 34 -94 38 -36 7 -129 13 -133 9z m119 -204 c23 -14 59 -68 51
-76 -4 -4 -156 -7 -234 -5 -26 1 -22 22 11 60 43 48 115 57 172 21z"/>
<path d="M4550 3726 c0 -6 54 -159 119 -341 l119 -330 139 -3 140 -3 15 43
c37 102 81 226 146 408 39 107 73 205 77 218 l7 23 -113 -3 -113 -3 -49 -155
c-27 -85 -60 -191 -73 -235 -14 -44 -27 -87 -31 -95 -5 -14 -16 17 -104 305
-22 72 -45 142 -51 157 l-10 27 -109 0 c-74 -1 -109 -5 -109 -13z"/>
<path d="M1230 3719 c0 -5 -3 -8 -7 -6 -11 7 -74 -29 -66 -37 7 -7 11 -18 15
-51 3 -21 -13 -24 -45 -10 -14 6 -15 10 -6 21 16 19 1 18 -18 -1 -12 -13 -18
-13 -31 -3 -12 10 -14 10 -8 1 4 -7 2 -13 -3 -13 -6 0 -11 -7 -11 -15 0 -8 -4
-15 -9 -15 -5 0 -13 -10 -17 -22 -3 -13 -13 -31 -22 -40 -9 -12 -11 -18 -4
-18 7 0 12 5 12 10 0 5 3 9 8 9 18 -3 32 2 32 12 0 5 -4 8 -9 5 -14 -9 -6 23
9 37 12 10 12 9 2 -4 -6 -9 -9 -19 -5 -22 14 -15 21 -5 18 23 -3 23 0 30 13
30 15 0 15 -2 2 -11 -12 -8 -11 -9 5 -6 11 2 19 8 18 15 -2 7 4 9 14 5 11 -4
13 -8 5 -11 -10 -3 -10 -7 -1 -18 17 -20 34 -17 18 4 -12 15 -12 16 2 5 9 -7
19 -10 22 -6 4 3 7 1 7 -5 0 -9 5 -9 20 0 22 14 27 33 7 25 -15 -6 -17 27 -2
40 4 5 5 3 1 -4 -3 -6 -1 -15 5 -18 7 -5 10 0 7 11 -2 11 -11 18 -19 16 -9 -1
-16 4 -16 12 0 8 7 11 19 8 10 -2 18 1 18 8 0 7 -7 10 -16 6 -9 -3 -12 -2 -9
5 4 6 14 8 22 5 16 -7 43 10 43 25 0 5 -4 9 -10 9 -5 0 -10 -5 -10 -11z"/>
<path d="M1231 3686 c-19 -20 -21 -28 -12 -44 14 -27 14 -35 -1 -26 -7 4 -8 3
-4 -5 5 -7 -3 -22 -18 -36 -16 -15 -27 -19 -30 -12 -4 9 -8 8 -12 -1 -5 -10
-12 -8 -32 10 -14 13 -22 17 -18 10 5 -9 3 -12 -5 -10 -8 1 -14 0 -14 -4 0
-15 -40 -49 -71 -60 -19 -7 -34 -15 -34 -18 0 -4 -13 -21 -29 -39 -18 -20 -27
-39 -24 -49 4 -9 2 -13 -4 -9 -6 4 -14 -1 -17 -10 -8 -19 8 -40 18 -24 4 6 2
11 -3 11 -6 0 -2 9 9 20 12 12 18 26 14 32 -4 7 -3 8 5 4 6 -4 9 -13 5 -19 -3
-7 2 -3 10 8 9 11 14 26 11 34 -3 9 -3 12 1 9 12 -13 46 13 40 30 -5 15 -5 15
7 0 8 -10 17 -15 20 -11 4 3 2 11 -3 18 -7 8 -5 12 5 13 8 1 22 3 30 4 8 1 12
5 9 10 -3 4 3 5 13 2 10 -3 14 -2 8 3 -5 4 -11 15 -13 23 -2 11 1 11 11 -2 8
-10 18 -18 22 -18 4 0 4 8 1 18 -5 14 -4 14 9 -2 8 -11 15 -14 15 -8 0 7 5 12
11 12 8 0 8 -4 0 -14 -7 -8 -8 -17 -3 -20 6 -3 13 4 17 17 4 13 8 17 12 10 9
-23 31 -14 29 11 -2 17 1 23 11 19 8 -3 10 -10 5 -17 -10 -13 -10 -27 1 -43 6
-9 3 -11 -7 -7 -11 4 -14 0 -11 -15 2 -11 0 -23 -5 -26 -5 -3 -7 3 -5 14 4 24
-20 35 -46 21 -26 -14 -24 -28 6 -42 14 -6 21 -16 18 -22 -4 -6 7 0 24 14 17
14 28 28 26 33 -2 4 1 7 7 7 7 0 10 7 7 15 -4 8 -2 17 4 20 5 4 7 11 4 16 -4
5 -1 9 4 9 6 0 11 -5 11 -11 0 -5 5 -7 11 -3 8 5 8 9 -1 14 -9 6 -9 9 1 13 8
3 5 5 -6 4 -11 -1 -22 3 -23 8 -2 6 -9 16 -15 24 -9 11 -9 13 -1 8 7 -4 18 0
25 9 11 14 10 15 -6 12 -11 -1 -20 2 -20 7 0 6 -4 16 -8 23 -6 8 -4 12 5 10 7
-2 12 3 10 10 -1 8 2 11 7 8 11 -7 9 -25 -4 -46 -8 -13 -6 -13 8 -2 9 8 22 10
29 6 10 -6 9 -3 -1 9 -11 14 -11 17 0 17 8 1 3 7 -10 14 -18 10 -20 15 -10 19
8 3 9 6 3 6 -6 1 -21 -10 -33 -23z m-21 -120 c0 -3 -4 -8 -10 -11 -5 -3 -10
-1 -10 4 0 6 5 11 10 11 6 0 10 -2 10 -4z m36 -21 c-1 -8 -5 -17 -8 -21 -5 -4
-4 16 1 34 3 9 9 -1 7 -13z m-156 1 c0 -2 -8 -10 -17 -17 -16 -13 -17 -12 -4
4 13 16 21 21 21 13z m94 -76 c-6 -6 -15 -6 -24 0 -13 9 -13 11 0 20 18 11 39
-5 24 -20z m-174 11 c0 -5 -7 -11 -14 -14 -10 -4 -13 -1 -9 9 6 15 23 19 23 5z
m-40 -35 c0 -3 -4 -8 -10 -11 -5 -3 -10 -1 -10 4 0 6 5 11 10 11 6 0 10 -2 10
-4z"/>
<path d="M1110 3515 c-14 -7 -28 -11 -32 -9 -5 3 -8 0 -8 -6 0 -6 -6 -8 -12
-4 -7 4 -10 4 -6 -1 10 -10 -11 -37 -23 -29 -5 3 -12 -2 -15 -10 -3 -9 -10
-13 -15 -10 -8 5 -12 -9 -6 -21 1 -3 -13 -15 -30 -26 -18 -12 -31 -25 -28 -29
3 -4 -1 -13 -9 -19 -11 -9 -18 -8 -30 4 -9 9 -16 12 -16 7 0 -4 -27 -36 -59
-69 -45 -47 -56 -64 -47 -74 8 -9 8 -10 -1 -5 -21 12 -46 -10 -48 -42 -1 -20
3 -28 11 -25 13 5 13 20 0 43 -5 8 -6 12 -1 8 4 -4 14 -3 22 3 10 9 13 8 13 0
0 -7 5 -9 11 -6 6 4 8 13 6 20 -4 8 3 11 19 9 24 -2 32 10 14 21 -14 8 -13 18
5 41 13 18 14 18 8 -6 -3 -15 -2 -22 3 -17 5 5 10 13 10 18 1 5 2 14 3 20 0 5
5 8 10 4 6 -3 15 4 22 17 11 21 12 21 25 3 11 -15 17 -16 26 -7 9 9 9 12 -1
12 -7 0 -9 5 -6 10 4 6 16 8 28 5 12 -4 17 -3 12 2 -12 9 -14 28 -4 37 3 3 6
-1 7 -9 1 -8 3 -21 4 -29 2 -18 36 -17 42 1 7 18 -4 44 -16 37 -5 -3 -4 -11 3
-20 8 -10 8 -14 0 -14 -10 0 -13 7 -10 26 0 4 -5 10 -11 14 -8 5 -7 9 5 13 11
5 14 3 9 -6 -5 -9 -4 -9 5 -1 7 6 14 20 16 30 2 11 4 21 4 23 1 2 9 -3 18 -10
15 -12 16 -12 10 3 -4 11 -2 15 7 12 7 -3 19 3 27 12 12 16 12 17 -4 11 -11
-4 -16 -3 -12 4 4 5 15 7 26 4 11 -4 18 -2 17 3 -3 9 2 12 18 12 4 0 1 -7 -6
-15 -10 -12 -10 -15 1 -15 11 0 11 -2 -1 -10 -8 -5 -13 -10 -10 -11 3 0 13 -2
23 -4 20 -4 22 6 5 23 -8 8 -8 15 2 27 19 23 0 36 -30 20z m-232 -185 c-7 -10
-14 -17 -17 -15 -4 4 18 35 25 35 2 0 -1 -9 -8 -20z m-68 -84 c0 -3 -4 -8 -10
-11 -5 -3 -10 -1 -10 4 0 6 5 11 10 11 6 0 10 -2 10 -4z"/>
<path d="M1187 3519 c7 -7 15 -10 18 -7 3 3 -2 9 -12 12 -14 6 -15 5 -6 -5z"/>
<path d="M1071 3447 c-21 -23 -21 -64 1 -51 5 3 4 12 -3 20 -10 12 -10 15 2
12 8 -2 13 3 11 10 -1 8 2 11 8 7 6 -3 8 -11 5 -16 -4 -5 1 -12 10 -16 10 -3
21 0 25 7 6 9 10 7 15 -9 7 -23 25 -29 25 -8 0 8 4 7 10 -3 14 -22 12 -6 -3
23 -11 20 -17 23 -25 15 -7 -7 -12 -8 -12 -4 0 5 -8 2 -17 -5 -12 -10 -14 -10
-9 -1 4 7 1 15 -9 18 -13 6 -14 8 -3 15 7 5 8 9 2 9 -6 0 -20 -11 -33 -23z
m94 -27 c3 -5 1 -10 -4 -10 -6 0 -11 5 -11 10 0 6 2 10 4 10 3 0 8 -4 11 -10z"/>
<path d="M1024 3431 c4 -6 2 -18 -4 -26 -7 -8 -8 -15 -3 -15 4 0 9 -19 10 -42
1 -23 -1 -38 -5 -32 -8 11 -27 12 -38 2 -10 -11 -26 -10 -20 1 3 5 -1 12 -10
15 -8 3 -13 2 -10 -3 3 -5 -1 -15 -10 -22 -14 -11 -18 -11 -28 1 -9 13 -14 12
-33 -7 -12 -13 -20 -23 -16 -23 3 0 0 -7 -7 -15 -7 -8 -17 -12 -24 -8 -6 4 -5
-1 2 -10 8 -9 19 -15 25 -14 16 3 37 41 27 47 -4 3 -2 11 6 17 8 8 15 9 19 3
3 -6 1 -10 -5 -10 -6 0 -8 -5 -5 -10 5 -8 11 -7 21 1 10 8 14 8 14 0 0 -10
-14 -15 -34 -12 -5 1 -6 -5 -2 -14 3 -9 6 -19 6 -22 0 -2 7 3 16 11 8 9 19 14
24 11 5 -3 8 4 7 15 -1 11 -6 20 -11 20 -6 0 -5 5 1 11 15 15 33 3 28 -21 -2
-13 1 -17 10 -14 7 3 12 14 10 25 -3 12 0 17 7 13 7 -5 8 -2 3 7 -5 8 0 7 12
-4 19 -17 20 -16 31 8 9 19 9 25 -1 25 -8 0 -7 4 3 10 13 9 13 11 0 21 -13 9
-13 10 2 6 14 -5 15 -2 6 24 -5 16 -15 32 -21 36 -6 3 -7 1 -3 -6z m-154 -170
c0 -5 -7 -12 -16 -15 -14 -5 -15 -4 -4 9 14 17 20 19 20 6z"/>
<path d="M1082 3413 c1 -4 -4 -18 -11 -31 -12 -23 -22 -55 -23 -79 -1 -7 -5
-13 -10 -13 -4 0 -8 -5 -8 -12 0 -9 3 -9 12 0 7 7 17 12 23 12 5 0 2 -5 -8
-11 -9 -6 -15 -15 -11 -20 3 -6 -3 -5 -14 2 -12 7 -20 15 -19 18 1 4 -2 7 -8
8 -5 1 -9 -6 -9 -17 1 -11 -5 -19 -15 -19 -35 0 -71 -15 -71 -31 0 -13 31 -5
41 11 5 8 9 10 9 4 0 -5 5 -3 10 5 5 8 10 10 10 4 0 -9 38 -12 48 -4 3 3 19 7
32 9 6 0 9 7 8 14 -2 6 4 11 12 9 8 -2 12 0 7 4 -4 4 4 15 19 24 14 10 25 20
25 24 -3 20 0 26 12 20 6 -4 9 -4 5 1 -4 4 -3 14 3 21 9 10 7 15 -5 20 -9 3
-13 11 -10 16 4 6 -2 5 -14 -1 -25 -13 -35 -14 -27 -2 3 5 1 13 -5 16 -6 4 -9
3 -8 -2z m40 -30 c-6 -2 -9 -9 -6 -14 3 -6 12 -5 22 2 13 10 13 9 -1 -7 -15
-16 -19 -17 -27 -4 -5 8 -10 13 -11 10 0 -3 -2 -13 -4 -23 -2 -12 1 -17 10
-13 9 3 12 0 8 -10 -4 -12 -8 -12 -21 -2 -13 11 -15 10 -9 -4 8 -21 -4 -30
-23 -17 -11 6 -12 9 -2 9 7 0 11 4 8 9 -3 5 1 12 10 15 14 5 14 9 3 23 -8 9
-9 14 -3 10 7 -4 17 0 24 8 7 8 18 15 24 14 7 0 6 -2 -2 -6z"/>
<path d="M6775 3345 c-122 -44 -131 -218 -14 -277 71 -37 151 -15 203 55 32
43 28 124 -8 171 -15 20 -35 40 -45 46 -34 18 -95 20 -136 5z"/>
<path d="M877 3236 c-4 -10 -11 -15 -16 -11 -6 3 -9 -4 -8 -15 2 -26 11 -25
26 3 10 20 11 20 6 1 -3 -12 1 -26 10 -34 12 -10 15 -10 15 0 0 8 3 10 7 7 3
-4 13 -1 21 5 16 13 45 20 38 9 -3 -4 -1 -13 4 -21 6 -10 8 -6 6 15 -2 17 -4
31 -5 33 0 1 -11 -3 -23 -10 -36 -19 -47 -18 -62 9 -11 22 -14 23 -19 9z"/>
<path d="M795 3200 c-9 -10 -23 -16 -30 -14 -9 4 -12 -1 -11 -13 4 -22 -11
-43 -30 -43 -10 0 -13 8 -10 25 3 13 0 28 -6 31 -6 4 -9 3 -6 -2 3 -5 -12 -20
-33 -34 -21 -13 -39 -30 -39 -38 0 -7 -4 -11 -9 -7 -5 3 -16 -3 -23 -12 -7
-10 -19 -19 -27 -21 -15 -3 -40 -31 -41 -44 0 -16 19 -17 31 -1 12 15 12 16
-6 9 -20 -7 -20 -7 0 12 11 10 26 19 34 19 10 0 9 -3 -3 -12 -15 -11 -15 -13
-1 -19 9 -3 14 -2 11 3 -3 5 7 23 24 40 16 18 28 34 27 36 -1 2 2 7 7 12 5 5
6 3 2 -4 -10 -18 2 -16 20 2 11 11 12 15 3 15 -7 0 -9 3 -6 6 9 9 38 -16 31
-27 -3 -5 -9 -7 -14 -4 -5 3 -11 1 -14 -4 -3 -5 1 -12 9 -15 9 -3 18 1 21 8 7
17 32 14 45 -5 7 -12 9 -12 10 1 1 8 1 18 0 23 0 4 4 7 10 7 5 0 8 3 5 8 -2 4
2 18 10 32 8 15 13 19 14 10 0 -9 3 -11 8 -5 9 13 35 19 28 6 -4 -5 -2 -12 4
-16 6 -4 8 -11 5 -16 -3 -5 1 -6 9 -3 13 5 13 9 -2 32 -9 14 -15 28 -12 31 3
2 -3 5 -12 7 -9 1 -24 -6 -33 -16z m40 1 c-9 -8 -36 -10 -30 -2 2 4 11 8 20 8
8 0 13 -3 10 -6z m-78 -76 c0 -8 -4 -12 -9 -9 -5 3 -6 10 -3 15 9 13 12 11 12
-6z"/>
<path d="M929 3176 c-25 -23 -26 -23 -38 -4 -6 10 -16 16 -22 12 -6 -4 -4 -13
8 -26 9 -11 13 -19 8 -18 -17 3 -55 -12 -55 -21 0 -13 14 -11 28 3 9 9 12 9
12 0 0 -7 -6 -12 -12 -12 -9 0 -8 -4 2 -11 13 -9 12 -10 -3 -5 -12 4 -16 2
-12 -7 4 -6 -1 -3 -9 7 -9 11 -17 17 -17 13 -1 -4 -2 -12 -3 -19 -1 -14 -26
-23 -26 -9 0 5 5 13 11 17 8 4 7 9 -2 15 -7 4 -10 11 -6 16 5 4 12 1 16 -6 7
-10 11 -8 16 10 5 13 7 26 7 29 -3 9 -42 8 -42 -1 0 -5 0 -11 0 -14 0 -3 -6
-18 -15 -35 -16 -30 -21 -54 -7 -32 6 8 9 2 9 -17 0 -17 -6 -32 -13 -35 -8 -3
-11 -12 -8 -21 3 -8 11 -12 17 -8 6 3 7 1 3 -6 -4 -6 -12 -9 -17 -6 -5 4 -9 1
-9 -5 0 -6 -4 -9 -8 -6 -4 2 -14 1 -22 -4 -12 -7 -12 -12 -2 -22 9 -9 12 -9
12 5 0 9 6 14 13 12 19 -7 46 19 43 41 -4 26 12 56 26 48 7 -4 8 -3 4 4 -4 7
-2 13 3 13 16 2 23 4 50 13 18 6 21 10 10 17 -11 7 -11 9 -1 9 8 0 10 5 6 12
-5 8 -2 9 12 4 10 -4 15 -4 11 0 -10 10 13 35 26 27 5 -3 7 -1 4 4 -4 6 0 13
8 16 10 4 12 1 9 -11 -5 -14 -3 -14 6 1 19 30 -3 39 -31 13z m-114 -36 c3 -6
-1 -7 -9 -4 -18 7 -21 14 -7 14 6 0 13 -4 16 -10z"/>
<path d="M718 3099 c-10 -5 -18 -15 -18 -22 0 -8 3 -8 9 2 6 9 11 10 15 2 4
-6 1 -11 -6 -11 -10 0 -10 -2 1 -9 11 -7 11 -10 0 -16 -9 -6 -8 -10 7 -15 29
-11 45 6 32 36 -6 13 -15 24 -20 24 -5 0 -6 5 -3 10 8 12 5 12 -17 -1z m32
-39 c0 -5 0 -12 0 -15 0 -14 -13 -8 -16 8 -1 9 2 17 7 17 5 0 9 -4 9 -10z"/>
<path d="M638 3089 c-17 -10 -14 -39 4 -39 5 0 6 4 3 10 -3 5 0 8 7 5 7 -3 20
0 28 5 13 9 13 11 0 20 -18 12 -21 12 -42 -1z m32 -9 c0 -5 -4 -10 -10 -10 -5
0 -10 5 -10 10 0 6 5 10 10 10 6 0 10 -4 10 -10z"/>
<path d="M667 3053 c-20 -10 -32 -11 -41 -4 -16 14 -27 4 -19 -17 5 -12 2 -14
-12 -8 -11 4 -25 0 -35 -9 -17 -15 -19 -15 -33 5 -12 17 -15 18 -20 5 -4 -8
-13 -15 -21 -15 -20 0 -29 -17 -15 -26 7 -4 9 -3 5 4 -7 11 19 11 30 -1 4 -4
12 -7 18 -7 6 0 5 4 -3 9 -9 6 -10 11 -2 15 9 6 15 -5 13 -25 -1 -3 12 -6 27
-6 24 0 28 4 26 23 -1 15 2 21 11 17 17 -6 18 -20 2 -25 -8 -3 -9 -6 -1 -11 5
-3 15 5 22 19 9 20 9 24 -1 18 -8 -4 -10 -3 -5 2 5 5 12 9 15 9 4 0 13 4 19 8
9 6 11 3 6 -10 -6 -16 -5 -16 10 -4 9 7 15 17 12 20 -2 4 2 8 9 8 14 0 16 -14
3 -34 -4 -6 -3 -14 3 -18 5 -3 11 -3 11 2 10 72 7 78 -34 56z m-97 -53 c0 -5
-5 -10 -11 -10 -5 0 -7 5 -4 10 3 6 8 10 11 10 2 0 4 -4 4 -10z"/>
<path d="M671 3017 c-6 -8 -8 -17 -4 -20 3 -4 1 -7 -7 -7 -9 0 -10 -3 -1 -13
6 -8 8 -17 4 -20 -3 -4 1 -7 10 -7 10 0 17 -4 17 -8 0 -8 -6 -10 -49 -14 -11
-1 -17 -7 -14 -12 3 -5 1 -6 -5 -2 -6 3 -9 -1 -8 -9 1 -9 6 -15 12 -14 5 0 8
6 6 11 -2 6 4 8 13 5 8 -4 15 -2 15 4 0 6 4 8 9 4 14 -8 41 23 35 40 -4 9 1
18 11 21 9 4 14 13 10 22 -4 12 -3 13 10 2 8 -7 15 -8 15 -2 0 23 -31 21 -40
-2 -5 -13 -13 -27 -19 -31 -6 -3 -8 0 -5 8 3 8 0 18 -6 22 -8 5 -8 11 1 21 6
8 9 14 6 14 -2 0 -10 -6 -16 -13z"/>
<path d="M629 2998 c-1 -7 -1 -16 0 -20 1 -10 0 -10 -66 -12 -38 -2 -54 2 -58
12 -4 11 -9 12 -17 4 -7 -7 -17 -8 -29 -2 -12 7 -22 6 -32 -5 -8 -8 -18 -11
-22 -7 -5 4 -4 1 0 -7 6 -10 4 -13 -7 -9 -9 4 -26 -4 -42 -18 -14 -14 -26 -22
-26 -18 0 3 -6 1 -13 -5 -8 -6 -16 -8 -19 -5 -3 2 -8 -2 -11 -10 -4 -9 -2 -18
2 -21 5 -3 12 2 15 11 3 8 11 12 17 8 8 -5 9 -2 4 7 -6 11 -5 12 6 2 14 -14
30 -17 28 -5 -4 26 2 33 17 18 8 -9 21 -16 27 -15 8 0 8 2 -1 6 -6 2 -9 10 -6
15 5 7 2 8 -6 3 -9 -5 -11 -4 -6 4 4 6 12 9 17 6 5 -4 9 -1 9 5 0 7 7 10 15 6
20 -7 46 3 39 16 -4 6 1 6 13 -1 11 -6 24 -7 28 -3 3 4 6 3 5 -3 -5 -23 1 -46
10 -40 6 4 8 10 5 15 -3 5 4 14 15 20 25 13 65 -4 53 -23 -11 -17 -10 -31 2
-40 5 -4 -2 -5 -17 -3 -30 5 -33 0 -18 -24 8 -13 10 -13 10 2 0 11 6 15 19 11
15 -4 19 1 20 24 1 45 4 63 9 58 3 -3 10 0 17 5 8 7 12 5 12 -5 0 -8 -4 -12
-9 -9 -4 3 -8 0 -8 -6 0 -18 23 -6 26 13 1 9 -5 21 -14 27 -10 5 -12 10 -4 10
6 0 12 5 12 10 0 15 -20 12 -21 -2z m-179 -38 c0 -5 -2 -10 -4 -10 -3 0 -8 5
-11 10 -3 6 -1 10 4 10 6 0 11 -4 11 -10z"/>
<path d="M475 2941 c3 -5 -9 -9 -27 -8 -26 2 -33 -2 -33 -17 0 -25 -21 -32
-43 -15 -9 7 -14 9 -10 5 4 -5 2 -16 -4 -23 -10 -13 -7 -14 19 -10 20 3 39 -1
50 -10 10 -8 12 -12 6 -8 -9 4 -11 1 -7 -10 5 -11 10 -13 17 -6 7 7 7 15 -1
24 -7 8 -9 17 -5 21 4 4 -1 4 -12 1 -16 -5 -17 -5 -5 3 8 6 18 8 22 6 15 -10
8 9 -9 23 -17 13 -17 13 2 5 24 -10 55 -10 55 1 0 4 0 12 0 17 0 6 -5 10 -11
10 -5 0 -8 -4 -4 -9z"/>
<path d="M550 2944 c0 -3 4 -13 9 -23 7 -13 6 -18 -4 -18 -7 0 -11 6 -8 13 2
6 0 15 -6 19 -7 3 -8 0 -5 -9 6 -16 2 -18 -48 -19 -15 -1 -25 -4 -22 -8 2 -4
-3 -10 -12 -13 -8 -3 -12 -10 -9 -16 4 -6 16 -3 32 7 25 16 61 28 49 16 -3 -4
-1 -12 6 -20 9 -11 7 -12 -7 -7 -12 5 -16 4 -12 -3 4 -6 0 -16 -8 -23 -9 -8
-15 -8 -15 -2 0 13 -23 10 -42 -5 -13 -11 -41 -3 -39 11 3 18 0 23 -14 23 -11
0 -12 -4 -4 -14 6 -7 8 -13 4 -13 -4 0 3 -8 16 -18 17 -15 19 -21 9 -27 -8 -5
-11 -4 -6 3 3 6 1 14 -5 18 -8 5 -9 3 -4 -6 6 -9 4 -11 -5 -5 -8 5 -11 4 -7
-2 3 -5 -1 -10 -9 -10 -10 0 -11 4 -4 11 16 16 12 30 -5 16 -12 -10 -18 -10
-31 1 -14 11 -15 10 -12 -6 2 -14 -3 -20 -19 -21 -12 -1 -20 2 -17 7 2 4 12 5
21 2 15 -6 16 -5 3 9 -11 12 -19 13 -32 4 -12 -7 -14 -14 -7 -21 12 -12 69
-15 69 -3 0 5 6 6 13 1 26 -17 94 -3 82 17 -3 5 0 12 6 16 7 4 9 3 5 -4 -3 -6
-1 -14 5 -18 8 -5 10 -1 7 14 -4 15 -2 19 8 15 8 -3 11 -9 8 -14 -3 -5 2 -6
10 -3 9 3 16 10 16 16 0 5 5 6 12 2 7 -5 8 -3 3 6 -6 10 -4 12 9 7 13 -5 16
-1 14 20 -2 19 2 28 12 28 8 0 15 5 15 10 0 6 4 16 9 24 6 10 5 12 -2 7 -7 -4
-12 -2 -12 3 0 6 -4 11 -10 11 -5 0 -10 -3 -10 -6z"/>
<path d="M245 2877 c-11 -7 -23 -16 -27 -22 -4 -5 -8 -6 -8 -1 0 5 -6 4 -12
-2 -7 -6 -16 -11 -20 -12 -38 -9 -48 -14 -48 -22 0 -6 -7 -7 -16 -4 -10 4 -13
2 -8 -6 5 -8 2 -9 -10 -5 -11 5 -15 3 -10 -5 5 -8 2 -9 -9 -5 -9 3 -19 3 -21
-2 -3 -4 44 -7 105 -7 82 1 108 4 104 13 -2 7 5 17 15 23 25 13 25 22 3 48
-15 17 -21 19 -38 9z m14 -14 c-12 -15 -12 -16 3 -10 10 3 20 1 24 -5 10 -16
-18 -28 -39 -16 -15 8 -18 7 -11 -4 5 -7 9 -19 10 -26 2 -10 -1 -11 -12 -1
-11 9 -14 9 -14 -1 0 -8 -3 -10 -6 -7 -4 4 -1 13 5 21 10 12 9 15 -8 13 -14
-1 -20 -6 -16 -15 2 -7 0 -10 -5 -7 -6 3 -10 0 -10 -7 0 -9 -3 -9 -10 2 -9 13
-10 13 -10 0 0 -13 -1 -13 -10 0 -6 10 -10 11 -10 3 0 -7 -8 -13 -17 -13 -16
1 -16 2 2 13 11 6 24 12 28 12 4 0 12 7 17 15 5 8 10 11 10 7 0 -5 6 -5 13 0
6 4 18 8 26 10 8 1 21 9 30 17 20 21 27 20 10 -1z"/>
<path d="M307 2878 c-5 -18 4 -48 15 -48 5 0 6 6 2 13 -4 6 2 3 15 -7 20 -18
23 -19 38 -3 11 11 13 17 5 17 -24 0 -27 2 -40 23 -7 12 -11 15 -9 6 3 -9 -1
-16 -8 -16 -7 0 -11 6 -8 14 3 7 3 13 0 13 -3 0 -7 -6 -10 -12z m63 -40 c0 -4
-4 -8 -9 -8 -6 0 -12 4 -15 8 -3 5 1 9 9 9 8 0 15 -4 15 -9z"/>
<path d="M488 2876 c-23 -17 -23 -21 0 -23 11 -1 18 6 19 18 2 22 3 22 -19 5z"/>
</g>
</svg>
